{
	"asset":{
		"generator":"Khronos glTF Blender I/O v4.0.44",
		"version":"2.0"
	},
	"scene":0,
	"scenes":[
		{
			"name":"Scene",
			"nodes":[
				1,
				3,
				4
			]
		}
	],
	"nodes":[
		{
			"mesh":0,
			"name":"T shirt bleu marine _T-shirt bleu marine_0"
		},
		{
			"children":[
				0
			],
			"name":"T shirt bleu marine ",
			"scale":[
				100,
				100,
				100
			],
			"translation":[
				-9900.2626953125,
				0,
				0
			]
		},
		{
			"mesh":1,
			"name":"T shirt rose_T-shirt rose_0"
		},
		{
			"children":[
				2
			],
			"name":"T shirt rose",
			"scale":[
				100,
				100,
				100
			],
			"translation":[
				9929.490234375,
				0,
				0
			]
		},
		{
			"mesh":2,
			"name":"T shirt bordeaux_T-shirt bordeaux_0"
		}
	],
	"materials":[
		{
			"doubleSided":true,
			"name":"T-shirt_bleu_marine",
			"normalTexture":{
				"index":0
			},
			"pbrMetallicRoughness":{
				"baseColorTexture":{
					"index":1
				},
				"metallicFactor":0
			}
		},
		{
			"doubleSided":true,
			"name":"T-shirt_rose",
			"normalTexture":{
				"index":2
			},
			"pbrMetallicRoughness":{
				"baseColorTexture":{
					"index":3
				},
				"metallicFactor":0
			}
		}
	],
	"meshes":[
		{
			"name":"T shirt bleu marine _T-shirt bleu marine_0",
			"primitives":[
				{
					"attributes":{
						"POSITION":0,
						"NORMAL":1,
						"TEXCOORD_0":2
					},
					"indices":3,
					"material":0
				}
			]
		},
		{
			"name":"T shirt rose_T-shirt rose_0",
			"primitives":[
				{
					"attributes":{
						"POSITION":4,
						"NORMAL":5,
						"TEXCOORD_0":6
					},
					"indices":3,
					"material":1
				}
			]
		},
		{
			"name":"T shirt bordeaux_T-shirt bordeaux_0",
			"primitives":[
				{
					"attributes":{
						"POSITION":7,
						"NORMAL":8,
						"TEXCOORD_0":9
					},
					"indices":3,
					"material":0
				}
			]
		}
	],
	"textures":[
		{
			"sampler":0,
			"source":0
		},
		{
			"sampler":0,
			"source":1
		},
		{
			"sampler":0,
			"source":0
		},
		{
			"sampler":0,
			"source":2
		}
	],
	"images":[
		{
			"mimeType":"image/png",
			"name":"T-shirt_bleu_marine_normal",
			"uri":"T-shirt_bleu_marine_normal.png"
		},
		{
			"mimeType":"image/png",
			"name":"T-shirt_bleu_marine_baseColor",
			"uri":"T-shirt_bleu_marine_baseColor.png"
		},
		{
			"mimeType":"image/png",
			"name":"T-shirt_rose_baseColor",
			"uri":"T-shirt_rose_baseColor.png"
		}
	],
	"accessors":[
		{
			"bufferView":0,
			"componentType":5126,
			"count":1146,
			"max":[
				36.06235885620117,
				27.199058532714844,
				18.904987335205078
			],
			"min":[
				-36.087345123291016,
				-35.68126678466797,
				-14.266544342041016
			],
			"type":"VEC3"
		},
		{
			"bufferView":1,
			"componentType":5126,
			"count":1146,
			"type":"VEC3"
		},
		{
			"bufferView":2,
			"componentType":5126,
			"count":1146,
			"type":"VEC2"
		},
		{
			"bufferView":3,
			"componentType":5123,
			"count":6132,
			"type":"SCALAR"
		},
		{
			"bufferView":4,
			"componentType":5126,
			"count":1146,
			"max":[
				36.06235885620117,
				27.199058532714844,
				18.904987335205078
			],
			"min":[
				-36.087345123291016,
				-35.68126678466797,
				-14.266544342041016
			],
			"type":"VEC3"
		},
		{
			"bufferView":5,
			"componentType":5126,
			"count":1146,
			"type":"VEC3"
		},
		{
			"bufferView":6,
			"componentType":5126,
			"count":1146,
			"type":"VEC2"
		},
		{
			"bufferView":7,
			"componentType":5126,
			"count":1146,
			"max":[
				36.06235885620117,
				27.199058532714844,
				18.904987335205078
			],
			"min":[
				-36.087345123291016,
				-35.68126678466797,
				-14.266544342041016
			],
			"type":"VEC3"
		},
		{
			"bufferView":8,
			"componentType":5126,
			"count":1146,
			"type":"VEC3"
		},
		{
			"bufferView":9,
			"componentType":5126,
			"count":1146,
			"type":"VEC2"
		}
	],
	"bufferViews":[
		{
			"buffer":0,
			"byteLength":13752,
			"byteOffset":0,
			"target":34962
		},
		{
			"buffer":0,
			"byteLength":13752,
			"byteOffset":13752,
			"target":34962
		},
		{
			"buffer":0,
			"byteLength":9168,
			"byteOffset":27504,
			"target":34962
		},
		{
			"buffer":0,
			"byteLength":12264,
			"byteOffset":36672,
			"target":34963
		},
		{
			"buffer":0,
			"byteLength":13752,
			"byteOffset":48936,
			"target":34962
		},
		{
			"buffer":0,
			"byteLength":13752,
			"byteOffset":62688,
			"target":34962
		},
		{
			"buffer":0,
			"byteLength":9168,
			"byteOffset":76440,
			"target":34962
		},
		{
			"buffer":0,
			"byteLength":13752,
			"byteOffset":85608,
			"target":34962
		},
		{
			"buffer":0,
			"byteLength":13752,
			"byteOffset":99360,
			"target":34962
		},
		{
			"buffer":0,
			"byteLength":9168,
			"byteOffset":113112,
			"target":34962
		}
	],
	"samplers":[
		{
			"magFilter":9729,
			"minFilter":9987
		}
	],
	"buffers":[
		{
			"byteLength":122280,
			"uri":"t-shirt.bin"
		}
	]
}
